<svg id="レイヤー_1" data-name="レイヤー 1" xmlns="http://www.w3.org/2000/svg" xmlns:xlink="http://www.w3.org/1999/xlink" viewBox="0 0 143.04 61.8"><defs><style>.cls-1,.cls-3,.cls-4,.cls-5{fill:none;}.cls-2{clip-path:url(#clip-path);}.cls-3,.cls-4,.cls-5{stroke:#000;stroke-linecap:round;stroke-linejoin:round;}.cls-3{stroke-width:1.44px;}.cls-4{stroke-width:1.02px;}.cls-5{stroke-width:0;}</style><clipPath id="clip-path" transform="translate(-350.64 -248.68)"><polyline class="cls-1" points="342.24 318.88 502.08 318.88 502.08 240.28 342.24 240.28 342.24 318.88"/></clipPath></defs><g class="cls-2"><polyline class="cls-3" points="32.4 61.08 32.46 61.08 32.58 61.08 32.7 61.08 32.94 61.08 33.18 61.08 33.48 61.08 33.78 61.08 34.14 61.08 67.26 61.08 67.62 61.08 67.92 61.08 68.22 61.08 68.46 61.08 68.7 61.08 68.82 61.08 68.94 61.08 69 61.08 68.76 55.5 68.76 55.44 68.7 55.38 68.64 55.38 68.58 55.38 68.52 55.38 68.46 55.38 68.4 55.38 68.34 55.38 68.28 55.38 68.22 55.38 68.16 55.44 68.04 55.44 67.98 55.44 67.92 55.44 67.86 55.5 67.8 55.5 67.68 55.5 67.62 55.56 67.56 55.56 67.5 55.62 67.38 55.62 67.32 55.68 67.26 55.68 67.14 55.74 67.08 55.8 66.54 56.04 66 56.22 65.46 56.46 64.92 56.7 64.38 56.94 63.78 57.12 63.24 57.3 62.7 57.54 62.1 57.72 61.56 57.9 60.96 58.08 60.42 58.2 59.82 58.38 59.22 58.5 58.68 58.68 58.08 58.8 57.48 58.92 56.88 58.98 56.28 59.1 55.62 59.16 55.02 59.28 54.42 59.34 53.82 59.34 53.16 59.4 52.56 59.4 52.02 59.46 51.42 59.46 50.82 59.4 50.22 59.4 49.68 59.4 49.14 59.34 48.54 59.28 48 59.22 47.46 59.16 46.98 59.1 46.44 59.04 45.9 58.92 45.42 58.86 44.94 58.74 44.4 58.68 43.92 58.56 43.5 58.44 43.02 58.32 42.54 58.2 42.12 58.08 41.7 57.96 41.28 57.84 40.86 57.66 40.44 57.54 40.02 57.36 39.6 57.24 39.18 57.06 38.76 56.94 38.34 56.76 37.92 56.58 37.5 56.4 37.08 56.22 36.72 56.04 36.3 55.86 35.88 55.62 35.52 55.44 35.1 55.2 34.74 55.02 34.32 54.78 34.26 54.78 34.2 54.72 34.14 54.66 34.02 54.6 33.96 54.6 33.9 54.54 33.78 54.54 33.72 54.48 33.66 54.48 33.6 54.42 33.54 54.42 33.42 54.36 33.36 54.36 33.3 54.3 33.24 54.3 33.18 54.3 33.12 54.3 33.06 54.3 33 54.24 32.94 54.24 32.88 54.24 32.82 54.24 32.82 54.3 32.76 54.3 32.7 54.3 32.7 54.36 32.64 54.36 32.64 54.42 32.4 61.08"/><polyline class="cls-4" points="56.76 61.08 56.7 60.66 56.64 60.24 56.64 59.82 56.58 59.4 56.52 59.04 56.46 58.62 56.46 58.26 56.4 57.9 56.4 57.72 56.4 57.54 56.34 57.42 56.34 57.24 56.34 57.06 56.34 56.88 56.34 56.76 56.34 56.58 56.34 56.46 56.4 56.28 56.4 56.16 56.4 56.04 56.46 55.86 56.46 55.74 56.52 55.62 56.52 55.5 56.58 55.38 56.64 55.26 56.64 55.14 56.7 55.02 56.76 54.96 56.82 54.84 56.94 54.72 57 54.66 57.06 54.54 57.12 54.42 57.24 54.36 57.36 54.3 57.42 54.18 57.54 54.12 57.66 54 57.72 53.94 57.84 53.88 57.96 53.82"/><polyline class="cls-4" points="60.96 52.38 61.14 52.32 61.5 52.14 61.92 52.02 62.34 51.84 62.7 51.66 63.12 51.48 63.6 51.3 64.02 51.12 64.44 50.94 64.92 50.76 65.34 50.52 65.82 50.34 66.3 50.1 66.78 49.92 67.2 49.68"/><polyline class="cls-4" points="70.26 48.24 70.62 48.06 71.58 47.58 72.54 47.1 73.5 46.56 74.46 46.08 75.42 45.54 76.2 45.12"/><polyline class="cls-4" points="79.2 43.5 80.1 43.02 81 42.54 81.9 42 82.74 41.52 83.64 40.98 85.08 40.2"/><polyline class="cls-4" points="87.96 38.52 88.08 38.46 88.92 37.92 89.4 37.68 89.82 37.38 90.3 37.14 90.78 36.84 91.2 36.6 91.68 36.3 92.16 36 92.64 35.76 93.12 35.46 93.6 35.16 93.78 35.04"/><polyline class="cls-4" points="96.72 33.36 97.2 33.06 97.74 32.76 98.34 32.46 98.88 32.16 99.42 31.86 100.02 31.5 100.62 31.2 101.22 30.9 101.82 30.6 102.42 30.24 102.66 30.18"/><polyline class="cls-4" points="105.72 28.68 106.32 28.38 106.98 28.08 107.7 27.78 109.02 27.18 110.4 26.58 111.78 25.98 111.84 25.92"/><polyline class="cls-4" points="114.96 24.6 115.08 24.54 115.74 24.24 116.34 23.94 116.7 23.82 117 23.7 117.3 23.52 117.6 23.4 117.84 23.22 118.14 23.1 118.44 22.98 118.68 22.86 118.98 22.68 119.28 22.56 119.52 22.44 119.76 22.26 120 22.14 120.24 22.02 120.48 21.9 120.72 21.72 120.96 21.6 121.02 21.6"/><polyline class="cls-4" points="123.66 19.56 123.78 19.44 123.84 19.32 123.96 19.2 124.02 19.08 124.14 18.96 124.2 18.84 124.26 18.72 124.26 18.6 124.32 18.48 124.38 18.36 124.38 18.3 124.38 18.18 124.44 18.06 124.44 17.94 124.38 17.88 124.38 17.76 124.38 17.7 124.32 17.58 124.32 17.46 124.26 17.4 124.2 17.28 124.14 17.22 124.08 17.16 124.02 17.04 123.96 16.98 123.9 16.92 123.78 16.86 123.72 16.74 123.6 16.68 123.48 16.62 123.36 16.56 123.24 16.5 123.12 16.5 123 16.44 122.88 16.38 122.76 16.32 122.58 16.32 122.46 16.26 122.34 16.2 122.16 16.2 121.98 16.14 121.86 16.14 121.68 16.14 121.5 16.08 121.32 16.08 121.14 16.08 120.96 16.08 120.78 16.08 120.6 16.08 120.36 16.08 120.3 16.08"/><polyline class="cls-4" points="116.94 16.44 116.52 16.5 115.98 16.56 115.5 16.68 114.96 16.74 114.36 16.86 113.82 16.98 113.28 17.04 112.68 17.16 112.08 17.28 111.48 17.4 110.88 17.46 110.28 17.58"/><polyline class="cls-4" points="106.92 18.06 106.32 18.18 105.66 18.24 104.94 18.3 104.28 18.36 103.56 18.42 102.84 18.48 102.18 18.54 101.46 18.6 100.74 18.6 100.2 18.66"/><polyline class="cls-4" points="96.84 18.72 96.42 18.72 95.7 18.72 95.04 18.72 94.32 18.72 93.6 18.66 92.88 18.66 92.22 18.66 91.5 18.6 90.84 18.6 90.18 18.6 90.12 18.54"/><polyline class="cls-4" points="86.7 18.42 86.16 18.36 85.5 18.36 84.9 18.3 84.24 18.3 83.64 18.24 82.98 18.24 82.38 18.18 81.78 18.18 81.18 18.18 80.52 18.12 79.98 18.12"/><polyline class="cls-4" points="76.62 18.06 76.38 18.06 75.84 18.06 75.24 18.06 74.64 18.06 74.1 18.12 73.5 18.12 72.96 18.12 72.36 18.18 71.82 18.24 71.22 18.24 70.68 18.3 70.08 18.36 69.84 18.36"/><polyline class="cls-4" points="66.48 18.78 66.06 18.84 65.46 18.96 64.92 19.02 64.32 19.14 63.72 19.2 63.18 19.32 62.58 19.44 61.98 19.56 60.78 19.8 59.88 20.04"/><polyline class="cls-4" points="56.58 20.76 56.1 20.88 54.96 21.12 53.76 21.42 53.22 21.54 52.62 21.66 52.08 21.84 51.48 21.96 50.94 22.08 50.4 22.2 49.98 22.26"/><polyline class="cls-4" points="46.68 22.86 46.2 22.92 45.72 22.98 45.24 23.04 44.76 23.1 44.28 23.16 43.8 23.16 43.32 23.16 42.9 23.22 42.42 23.16 42 23.16 41.58 23.16 41.16 23.1 40.74 23.1 40.32 23.04 39.96 22.92"/><polyline class="cls-4" points="36.72 21.9 36.42 21.78 36 21.6 35.64 21.36 35.22 21.18 34.86 20.94 34.44 20.7 34.02 20.46 33.6 20.22 33.18 19.98 32.76 19.68 32.34 19.44 31.92 19.14 31.5 18.9 31.08 18.6 30.9 18.54"/><polyline class="cls-4" points="28.02 16.74 27.96 16.68 27.54 16.44 27.06 16.2 26.64 15.96 26.16 15.72 25.74 15.54 25.56 15.42 25.32 15.3 25.08 15.24 24.9 15.12 24.66 15.06 24.48 14.94 24.24 14.88 24.06 14.82 23.88 14.76 23.64 14.7 23.46 14.64 23.28 14.58 23.04 14.52 22.86 14.46 22.68 14.46 22.5 14.4 22.32 14.4 22.14 14.4 21.96 14.34 21.78 14.34"/><polyline class="cls-4" points="18.96 15.84 18.9 15.96 18.84 16.08 18.78 16.26 18.66 16.44 18.6 16.62 18.54 16.8 18.48 16.98 18.48 17.16 18.42 17.4 18.36 17.58 18.3 17.82 18.3 18 18.24 18.24 18.24 18.48 18.24 18.72 18.18 18.96 18.18 19.2 18.18 19.44 18.18 19.68 18.18 19.92 18.18 20.16 18.18 20.46 18.18 20.7 18.18 21 18.18 21.24 18.24 21.78 18.3 22.32 18.3 22.44"/><polyline class="cls-4" points="18.78 25.8 18.84 26.1 18.96 26.64 19.08 27.12 19.2 27.66 19.26 27.9 19.32 28.14 19.38 28.32 19.44 28.56 19.5 28.8 19.56 29.04 19.62 29.22 19.68 29.46 19.74 29.7 19.8 29.88 19.86 30.06 19.92 30.3 19.98 30.48 20.04 30.66 20.16 31.02 20.28 31.38 20.4 31.74 20.52 32.1 20.64 32.28"/><polyline class="cls-4" points="22.14 35.34 22.26 35.52 22.44 35.88 22.62 36.18 22.86 36.54 23.1 36.84 23.34 37.2 23.58 37.56 23.82 37.92 24.12 38.28 24.36 38.64 24.66 39 24.96 39.42 25.32 39.78 25.62 40.14 25.98 40.56 26.1 40.74"/><polyline class="cls-4" points="28.5 43.14 28.56 43.26 28.98 43.68 29.4 44.04 29.88 44.4 30.3 44.76 30.72 45.12 31.2 45.48 31.68 45.84 32.1 46.14 32.58 46.5 33.06 46.8 33.54 47.1 33.84 47.28"/><polyline class="cls-4" points="36.78 48.9 36.9 48.96 37.38 49.2 37.86 49.38 38.34 49.62 38.82 49.8 39.24 49.98 39.72 50.16 40.14 50.34 40.56 50.52 40.98 50.7 41.4 50.82 41.82 51 42 51.06 42.18 51.12 42.36 51.24 42.54 51.3 42.72 51.36 42.9 51.42 43.02 51.48"/><polyline class="cls-4" points="45.72 53.46 45.72 53.52 45.78 53.64 45.84 53.76 45.9 53.88 45.9 53.94 45.96 54.06 45.96 54.18 46.02 54.3 46.02 54.42 46.02 54.6 46.02 54.72 46.02 54.84 46.02 54.96 46.02 55.08 46.02 55.26 46.02 55.38 46.02 55.5 45.96 55.68 45.96 55.8 45.96 55.98 45.9 56.1 45.9 56.28 45.84 56.46 45.78 56.58 45.72 56.94 45.6 57.3 45.54 57.66 45.42 58.02 45.3 58.38 45.24 58.74 45.12 59.1 45 59.52 44.88 59.88 44.82 60.3 44.7 60.66 44.64 61.08"/><polyline class="cls-3" points="6.78 6.96 6.18 7.14 5.88 7.26 5.58 7.32 5.34 7.44 5.04 7.56 4.74 7.62 4.5 7.74 4.2 7.86 3.96 7.98 3.72 8.04 3.48 8.16 3.24 8.28 3 8.4 2.82 8.52 2.64 8.58 2.46 8.7 2.28 8.82 2.1 8.94 1.92 9.06 1.8 9.18 1.62 9.3 1.5 9.42 1.32 9.54 1.2 9.72 1.08 9.84 1.02 9.9 0.96 10.02 0.96 10.08 0.9 10.2 0.84 10.26 0.84 10.38 0.78 10.44 0.78 10.56 0.72 10.62 0.72 10.74 0.72 10.8 0.72 10.92 0.72 10.98 0.72 11.04 0.78 11.16 0.78 11.22 0.78 11.28 0.84 11.34 0.84 11.4 0.9 11.46 0.96 11.52 1.02 11.58 1.08 11.64 1.14 11.7 1.2 11.76 1.26 11.76 1.38 11.82 1.44 11.82 1.56 11.88 1.68 11.88 1.8 11.88 1.98 11.88 2.1 11.88 2.28 11.88 2.46 11.88 2.52 11.88 2.64 11.88 2.7 11.88 2.82 11.88 2.94 11.88 3.06 11.88 3.18 11.88 3.3 11.88 3.42 11.82 3.54 11.82 3.66 11.82 3.78 11.82 3.96 11.82 4.08 11.82 4.2 11.82 4.38 11.82 4.56 11.82 4.68 11.82 4.92 11.76 5.1 11.76 5.28 11.76 5.52 11.76 5.7 11.76 5.94 11.76 6.12 11.76 6.36 11.76 6.84 11.76 7.26 11.7 7.74 11.7 8.22 11.7 8.34 11.82 8.4 11.94 8.58 12.18 8.76 12.42 8.94 12.6 9.12 12.78 9.24 13.02 9.42 13.2 9.6 13.38 9.96 13.74 10.32 14.04 10.68 14.4 10.8 14.58 10.98 14.76 11.16 14.94 11.34 15.12 11.46 15.3 11.64 15.54 11.82 15.72 11.94 15.96 12.06 16.2 12.18 16.44 12.3 16.68 12.42 16.92 12.54 17.22 12.6 17.46 12.72 17.76 12.78 18.06 12.84 18.36 12.9 18.48 12.9 18.66 12.96 18.84 12.96 18.96 12.96 19.14 13.02 19.32 13.02 19.5 13.08 19.68 13.08 19.86 13.08 20.1 13.14 20.28 13.14 20.46 13.2 20.7 13.2 20.88 13.2 21.12 13.26 21.36 13.26 21.54 13.26 21.78 13.32 22.02 13.32 22.26 13.38 22.56 13.38 22.8 13.38 23.04 13.44 23.28 13.44 23.58 13.5 23.82 13.5 24.12 13.56 24.36 13.62 24.66 13.62 24.96 13.68 25.26 13.74 25.56 13.74 25.86 13.8 26.16 13.86 26.46 13.92 26.76 13.98 27.06 14.04 27.42 14.1 27.72 14.16 28.08 14.22 28.44 14.28 28.74 14.34 29.1 14.46 29.46 14.52 29.82 14.64 30.18 14.7 30.6 14.82 30.96 14.94 31.38 15.06 31.74 15.18 32.16 15.3 32.52 15.42 32.94 15.54 33.36 15.66 33.78 15.84 34.2 15.96 34.68 16.14 35.1 16.32 35.58 16.5 36 16.62 36.48 16.86 36.9 17.04 37.38 17.22 37.8 17.4 38.22 17.58 38.64 17.76 39.06 17.94 39.48 18.12 39.84 18.3 40.26 18.48 40.62 18.66 40.98 18.84 41.34 19.02 41.7 19.26 42.06 19.44 42.42 19.62 42.72 19.8 43.02 19.98 43.32 20.16 43.62 20.34 43.92 20.46 44.22 20.64 44.52 20.82 44.76 21 45.06 21.18 45.3 21.3 45.54 21.48 45.78 21.66 46.02 21.78 46.2 21.96 46.44 22.08 46.62 22.26 46.8 22.38 47.04 22.5 47.22 22.62 47.34 22.8 47.52 22.92 47.7 23.04 47.82 23.1 48 23.22 48.12 23.34 48.24 23.46 48.36 23.52 48.48 23.64 48.6 23.7 48.66 24.06 49.08 24.42 49.5 24.78 49.86 25.14 50.28 25.5 50.64 25.86 51 26.28 51.36 26.64 51.72 27.06 52.08 27.42 52.44 27.84 52.8 28.26 53.16 28.68 53.46 29.1 53.76 29.52 54.12 29.94 54.42 30.36 54.72 30.78 55.02 31.26 55.32 31.68 55.62 32.16 55.92 32.58 56.16"/><polygon points="7.44 6.96 7.38 6.66 7.2 6.42 6.9 6.3 6.66 6.3 6.36 6.42 6.18 6.66 6.12 6.96 6.18 7.26 6.36 7.5 6.66 7.62 6.9 7.62 7.2 7.5 7.38 7.26 7.44 6.96"/><polygon class="cls-5" points="7.44 6.96 7.38 6.66 7.2 6.42 6.9 6.3 6.66 6.3 6.36 6.42 6.18 6.66 6.12 6.96 6.18 7.26 6.36 7.5 6.66 7.62 6.9 7.62 7.2 7.5 7.38 7.26 7.44 6.96"/><polyline class="cls-3" points="15.84 0.72 15.6 0.72 15.36 0.78 15.12 0.78 14.88 0.78 14.64 0.84 14.4 0.84 14.16 0.9 13.92 0.96 13.68 0.96 13.44 1.02 13.2 1.08 12.96 1.14 12.72 1.2 12.48 1.26 12.24 1.32 12 1.44 11.82 1.5 11.58 1.56 11.34 1.68 11.1 1.74 10.86 1.86 10.68 1.98 10.44 2.04 10.26 2.16 10.02 2.28 9.84 2.4 9.66 2.52 9.48 2.64 9.36 2.7 9.18 2.82 9.06 2.94 8.94 3.06 8.76 3.18 8.64 3.24 8.58 3.36 8.46 3.48 8.22 3.66 8.04 3.9 7.86 4.14 7.68 4.32 7.56 4.56 7.5 4.68 7.38 4.8 7.32 4.92 7.26 5.1 7.2 5.22 7.14 5.34 7.08 5.46 7.02 5.58 7.02 5.7 6.96 5.88 6.9 6 6.9 6.12 6.84 6.24 6.84 6.42 6.78 6.54 6.78 6.66 6.78 6.84 6.78 6.96"/><polyline class="cls-3" points="68.82 56.88 69.24 56.7 69.66 56.46 70.08 56.28 70.5 56.04 70.74 55.92 70.92 55.8 71.16 55.68 71.4 55.56 71.64 55.44 71.88 55.32 72.12 55.2 72.36 55.08 72.6 54.9 72.84 54.78 73.08 54.66 73.32 54.48 73.56 54.36 73.86 54.24 74.1 54.06 74.4 53.94 74.64 53.76 74.94 53.64 75.18 53.46 75.48 53.28 75.78 53.16 76.08 52.98 76.38 52.8 76.68 52.62 76.98 52.44 77.28 52.26 77.58 52.08 77.88 51.9 78.18 51.72 78.54 51.54 78.84 51.36 79.2 51.12 79.5 50.94 79.86 50.76 80.22 50.52 80.52 50.34 80.88 50.1 81.24 49.92 81.6 49.68 81.96 49.44 82.38 49.26 82.74 49.02 83.1 48.78 83.52 48.54 84.3 48.06 85.08 47.58 85.86 47.1 86.58 46.62 87.36 46.14 88.08 45.72 88.86 45.24 89.58 44.76 90.3 44.34 91.02 43.86 91.74 43.44 92.46 42.96 93.18 42.54 93.9 42.06 94.62 41.64 95.28 41.16 96.72 40.32 98.1 39.48 99.48 38.58 100.86 37.74 102.24 36.9 103.62 36.06 105.06 35.28 105.42 35.04 105.72 34.86 106.08 34.68 106.44 34.44 106.74 34.26 107.1 34.08 107.46 33.9 107.76 33.72 108.06 33.54 108.42 33.36 108.72 33.18 109.02 33 109.38 32.82 109.68 32.64 109.98 32.46 110.28 32.34 110.58 32.16 110.88 31.98 111.48 31.68 112.08 31.38 112.62 31.08 113.16 30.78 113.76 30.54 114.3 30.24 114.78 30 115.32 29.7 115.86 29.46 116.34 29.22 116.82 28.98 117.3 28.74 117.78 28.56 118.26 28.32 118.74 28.08 119.22 27.9 119.64 27.72 120.12 27.48 120.54 27.3 120.96 27.12 121.38 26.94 121.8 26.76 122.22 26.58 122.64 26.4 123.06 26.22 123.48 26.04 123.9 25.92 124.26 25.74 124.68 25.56 125.46 25.26 126.18 24.96 126.96 24.6 127.8 24.3 128.58 23.94 129.36 23.64 130.14 23.28 130.92 22.98 131.7 22.62 132.48 22.32 132.84 22.14 133.2 21.96 133.56 21.78 133.98 21.6 134.34 21.42 134.64 21.24 135 21.12 135.36 20.94 135.72 20.76 136.02 20.58 136.32 20.4 136.68 20.22 136.98 20.04 137.28 19.92 137.58 19.74 137.88 19.56 138.18 19.32 138.48 19.14 138.78 18.96 139.08 18.72 139.38 18.54 139.62 18.3 139.92 18.12 140.04 18 140.16 17.88 140.28 17.76 140.4 17.64 140.52 17.58 140.64 17.46 140.76 17.34 140.88 17.22 140.94 17.16 141.06 17.04 141.12 16.98 141.24 16.86 141.3 16.74 141.36 16.68 141.42 16.56 141.54 16.5 141.6 16.38 141.66 16.32 141.78 16.14 141.84 15.96 141.96 15.78 142.08 15.6 142.14 15.42 142.2 15.3 142.2 15.24 142.26 15.12 142.26 15 142.26 14.94 142.32 14.82 142.32 14.7 142.32 14.64 142.32 14.52 142.32 14.4 142.32 14.28 142.26 14.22 142.26 14.1 142.26 13.98 142.2 13.92 142.2 13.8 142.14 13.74 142.08 13.62 142.02 13.56 142.02 13.44 141.96 13.38 141.9 13.26 141.84 13.2 141.72 13.14 141.66 13.08 141.6 12.96 141.42 12.84 141.3 12.72 141.12 12.6 140.94 12.48 140.76 12.36 140.58 12.3 140.4 12.18 140.22 12.12 139.98 12 139.8 11.94 139.62 11.88 139.38 11.76 139.2 11.7 138.96 11.64 138.72 11.58 138.48 11.52 138.24 11.46 138 11.4 137.7 11.34 137.46 11.28 137.16 11.28 136.86 11.22 136.56 11.16 136.26 11.16 135.96 11.1 135.66 11.04 135.36 11.04 135 11.04 134.64 10.98 134.28 10.98 133.86 10.98 133.5 10.92 133.08 10.92 132.72 10.92 132.3 10.92 131.88 10.92 131.46 10.92 131.04 10.98 130.56 10.98 130.14 10.98 129.72 10.98 129.24 11.04 128.4 11.1 127.5 11.16 126.6 11.22 125.7 11.28 124.74 11.34 123.9 11.46 123 11.52 122.1 11.64 121.68 11.7 121.26 11.76 120.84 11.82 120.42 11.82 120 11.88 119.64 11.94 119.22 12 118.86 12.06 118.5 12.12 118.08 12.18 117.72 12.18 117.36 12.24 117.06 12.3 116.7 12.36 116.34 12.42 116.04 12.42 115.68 12.48 115.38 12.54 115.02 12.6 114.72 12.66 114.42 12.66 114.12 12.72 113.82 12.78 113.52 12.84 113.22 12.84 112.92 12.9 112.32 12.96 111.78 13.02 111.24 13.14 110.64 13.2 110.1 13.26 109.5 13.32 108.9 13.38 108.6 13.38 108.3 13.38 108 13.44 107.7 13.44 107.34 13.44 107.04 13.5 106.68 13.5 106.38 13.5 106.02 13.56 105.72 13.56 105.36 13.56 105 13.56 104.64 13.56 104.28 13.62 103.86 13.62 103.5 13.62 103.14 13.62 102.72 13.62 102.3 13.62 101.94 13.62 101.52 13.62 101.04 13.62 100.62 13.62 100.2 13.62 99.72 13.62 99.3 13.62 98.82 13.56 98.34 13.56 97.86 13.56 97.38 13.56 96.84 13.56 96.3 13.5 95.82 13.5 95.28 13.5 94.68 13.44 94.14 13.44 93.6 13.38 93 13.38 91.8 13.32 90.66 13.26 88.32 13.14 85.98 13.02 83.64 12.9 82.5 12.84 81.36 12.78 80.16 12.72 79.02 12.66 77.88 12.66 76.74 12.6 75.54 12.6 74.4 12.54 73.26 12.54 72.12 12.54 70.98 12.54 69.84 12.6 68.7 12.6 67.56 12.66 66.42 12.72 65.82 12.78 65.28 12.78 64.68 12.84 64.14 12.9 63.54 12.9 63 12.96 62.4 13.02 61.86 13.08 61.32 13.14 60.72 13.26 60.18 13.32 59.88 13.32 59.58 13.38 59.04 13.44 58.5 13.56 58.02 13.62 57.48 13.74 57 13.8 56.52 13.86 56.04 13.98 55.56 14.1 55.14 14.16 54.72 14.28 54.24 14.34 53.82 14.46 53.4 14.52 53.04 14.64 52.62 14.76 52.2 14.82 51.84 14.94 51.48 15 51.06 15.12 50.7 15.24 50.34 15.3 49.98 15.42 49.26 15.6 48.6 15.78 47.88 15.96 47.22 16.14 46.56 16.32 45.84 16.5 45.66 16.56 45.48 16.56 45.3 16.62 45.12 16.68 44.88 16.68 44.7 16.74 44.46 16.8 44.28 16.86 44.04 16.86 43.8 16.92 43.56 16.98 43.32 16.98 43.08 17.04 42.84 17.1 42.6 17.1 42.36 17.16 42.06 17.16 41.82 17.22 41.58 17.22 41.28 17.22 41.04 17.28 40.8 17.28 40.5 17.28 40.26 17.28 39.96 17.34 39.66 17.34 39.42 17.34 39.12 17.28 38.88 17.28 38.58 17.28 38.34 17.28 38.04 17.22 37.8 17.22 37.56 17.16 37.26 17.1 37.02 17.04 36.72 16.98 36.48 16.92 36.24 16.86 35.94 16.8 35.7 16.68 35.46 16.56 35.22 16.5 34.98 16.38 34.74 16.26 34.5 16.14 34.26 15.96 34.08 15.84 33.84 15.66 33.6 15.54 33.42 15.36 33.18 15.18 33 15 32.82 14.82 32.58 14.58 32.4 14.4 32.22 14.16 32.04 13.98 31.86 13.74 31.68 13.5 31.44 13.26 31.26 13.02 31.08 12.78 30.9 12.54 30.72 12.3 30.54 12 30.36 11.76 30.18 11.52 30 11.22 29.88 10.92 29.52 10.38 29.16 9.78 28.74 9.24 28.38 8.64 28.02 8.04 27.6 7.44 27.42 7.14 27.24 6.84 27 6.54 26.82 6.24 26.58 6 26.34 5.7 26.16 5.4 25.92 5.16 25.68 4.86 25.44 4.62 25.2 4.32 24.9 4.08 24.78 3.96 24.66 3.84 24.48 3.72 24.36 3.54 24.18 3.42 24 3.3 23.88 3.18 23.64 3 23.46 2.88 23.28 2.76 23.1 2.64 22.86 2.46 22.62 2.34 22.38 2.22 22.14 2.1 21.9 1.98 21.66 1.86 21.36 1.74 21.06 1.62 20.76 1.5 20.46 1.38 20.22 1.32 19.86 1.2 19.56 1.14 19.26 1.08 18.96 1.02 18.66 0.96 18.36 0.9 18.06 0.84 17.76 0.78 17.4 0.78 17.1 0.78 16.8 0.72 16.5 0.72 16.2 0.72 15.84 0.72"/><polyline class="cls-3" points="6.78 6.96 6.78 7.02 6.84 7.02 6.84 7.08 6.9 7.08 6.9 7.14 6.96 7.14 6.96 7.2 7.02 7.2 7.02 7.26 7.08 7.26 7.08 7.32"/><polyline class="cls-3" points="7.08 7.32 7.14 7.38 7.2 7.44 7.26 7.5 7.32 7.56 7.38 7.68 7.44 7.74 7.56 7.8 7.62 7.92 7.68 7.98 7.74 8.04 7.8 8.16 7.86 8.22 7.98 8.34 8.04 8.46 8.1 8.52 8.16 8.64 8.28 8.76 8.34 8.88 8.34 8.94 8.4 9 8.46 9.12 8.52 9.24 8.58 9.36 8.58 9.42 8.64 9.54 8.64 9.6 8.7 9.66 8.7 9.78 8.76 9.84 8.76 9.9 8.76 10.02 8.82 10.08 8.82 10.14 8.82 10.2 8.88 10.32 8.88 10.38 8.88 10.44 8.88 10.5 8.88 10.56 8.88 10.68 8.88 10.74 8.88 10.8 8.88 10.86 8.88 10.92 8.88 10.98 8.88 11.04 8.82 11.1 8.82 11.22 8.76 11.28 8.76 11.34 8.7 11.34 8.64 11.4 8.64 11.46 8.58 11.46 8.58 11.52 8.52 11.52 8.46 11.58 8.4 11.58 8.4 11.64 8.34 11.64 8.28 11.64 8.28 11.7 8.22 11.7"/><polyline class="cls-3" points="13.62 5.76 13.74 5.82 13.8 5.88 13.86 5.88 13.86 5.94 13.92 6 13.98 6.06 14.04 6.12 14.04 6.18 14.04 6.3 14.1 6.36 14.1 6.42 14.1 6.48 14.1 6.6 14.1 6.66 14.04 6.72 14.04 6.84 13.98 6.9 13.98 6.96 13.92 7.02 13.86 7.08 13.8 7.14 13.74 7.2 13.62 7.2 13.56 7.26 13.5 7.26 13.44 7.26 13.32 7.32 13.26 7.32 13.2 7.26 13.14 7.26 13.02 7.26 12.96 7.2 12.9 7.2 12.84 7.14 12.78 7.08 12.72 7.02 12.66 6.96 12.66 6.9 12.6 6.84 12.54 6.78 12.54 6.72 12.54 6.66 12.54 6.54 12.54 6.48 12.54 6.42 12.54 6.36 12.54 6.24 12.6 6.18 12.6 6.12 12.66 6.06 12.72 6 12.78 5.94 12.84 5.88 12.9 5.82 12.96 5.76 13.02 5.76 13.14 5.7 13.2 5.7 13.26 5.7 13.38 5.7 13.44 5.7 13.5 5.76 13.56 5.76 13.62 5.76"/></g></svg>